<svg xmlns="http://www.w3.org/2000/svg" version="1.1" xmlns:xlink="http://www.w3.org/1999/xlink" xmlns:svgjs="http://svgjs.com/svgjs" viewBox="0 0 24 24" width="24" height="24"><g transform="matrix(1,0,0,1,0,0)"><path d="M6.122,16.9H4.163a.735.735,0,0,0,0,1.469H6.122a.735.735,0,1,0,0-1.469Z" fill="currentColor" stroke="none" stroke-linecap="round" stroke-linejoin="round" stroke-width="0"></path><path d="M7.278,14.057l-1.7-.979a.735.735,0,1,0-.735,1.272l1.7.98a.735.735,0,0,0,.735-1.273Z" fill="currentColor" stroke="none" stroke-linecap="round" stroke-linejoin="round" stroke-width="0"></path><path d="M8.718,10.477a.735.735,0,0,0-1.273.735l.98,1.7A.735.735,0,0,0,9.7,12.174Z" fill="currentColor" stroke="none" stroke-linecap="round" stroke-linejoin="round" stroke-width="0"></path><path d="M12,12.488a.735.735,0,0,0,.735-.735V9.8a.735.735,0,0,0-1.47,0v1.958A.735.735,0,0,0,12,12.488Z" fill="currentColor" stroke="none" stroke-linecap="round" stroke-linejoin="round" stroke-width="0"></path><path d="M19.156,14.349a.735.735,0,0,0-.734-1.273l-1.7.978a.735.735,0,0,0,.368,1.371.726.726,0,0,0,.366-.1Z" fill="currentColor" stroke="none" stroke-linecap="round" stroke-linejoin="round" stroke-width="0"></path><path d="M19.839,16.9H17.88a.735.735,0,0,0,0,1.469h1.959a.735.735,0,0,0,0-1.469Z" fill="currentColor" stroke="none" stroke-linecap="round" stroke-linejoin="round" stroke-width="0"></path><path d="M15.5,11.2,11.223,15.47a2.726,2.726,0,0,0-.692,1.673v.489a.774.774,0,0,0,.96.788l.528-.105a2.024,2.024,0,0,0,1.324-1.1L15.7,11.329a.123.123,0,0,0-.2-.132Z" fill="currentColor" stroke="none" stroke-linecap="round" stroke-linejoin="round" stroke-width="0"></path><path d="M2.939,24H21.061A2.942,2.942,0,0,0,24,21.061V2.939A2.942,2.942,0,0,0,21.061,0H2.939A2.942,2.942,0,0,0,0,2.939V21.061A2.942,2.942,0,0,0,2.939,24ZM11.02,2.939a.735.735,0,1,1-.734-.735A.734.734,0,0,1,11.02,2.939Zm-2.938,0A.735.735,0,1,1,7.347,2.2.735.735,0,0,1,8.082,2.939Zm-2.939,0A.735.735,0,1,1,4.408,2.2.735.735,0,0,1,5.143,2.939Zm15.918,19.1H2.939a.98.98,0,0,1-.98-.98V6.633a1,1,0,0,1,1-1H21.041a1,1,0,0,1,1,1V21.061A.98.98,0,0,1,21.061,22.041Z" fill="currentColor" stroke="none" stroke-linecap="round" stroke-linejoin="round" stroke-width="0"></path></g></svg>
