<svg xmlns="http://www.w3.org/2000/svg" viewBox="0 0 24 24"><style>path{fill:currentColor;stroke:none;stroke-linecap:round;stroke-linejoin:round;}</style><path d="M9.959,6.544a2.656,2.656,0,0,1,.556-.846.256.256,0,0,0,.068-.209.25.25,0,0,0-.124-.182L3.552,1.36a1.491,1.491,0,0,0-1.71,2.426L2.5,4.35v8.631a3.5,3.5,0,1,0,2,0V6.065L8.428,9.431a.249.249,0,0,0,.394-.095Z"/><path d="M22,18.835H11a2,2,0,0,0,0,4H22a2,2,0,0,0,0-4Zm-10,2.75a.75.75,0,1,1,.75-.75A.75.75,0,0,1,12,21.585Zm4.5,0a.75.75,0,1,1,.75-.75A.75.75,0,0,1,16.5,21.585Zm4.5,0a.75.75,0,1,1,.75-.75A.75.75,0,0,1,21,21.585Z"/><path d="M21,11.335H18.5v-2.5a2.5,2.5,0,0,0-2.5-2.5H12.5a1.3,1.3,0,0,0-1.151.774L9.537,11.558a.509.509,0,0,0-.037.189v4.088a1.5,1.5,0,0,0,1.5,1.5H21a1.5,1.5,0,0,0,1.5-1.5v-3A1.5,1.5,0,0,0,21,11.335Zm-8.982-.46.665-2.337A.464.464,0,0,1,13.13,8.2h2.9a.466.466,0,0,1,.465.467V11a.466.466,0,0,1-.465.467h-3.57A.467.467,0,0,1,12.018,10.875Z"/></svg>
