<svg xmlns="http://www.w3.org/2000/svg" version="1.1" xmlns:xlink="http://www.w3.org/1999/xlink" xmlns:svgjs="http://svgjs.com/svgjs" viewBox="0 0 24 24" width="24" height="24"><g transform="matrix(1,0,0,1,0,0)"><path d="M22,0H2A2,2,0,0,0,0,2V22a2,2,0,0,0,2,2H22a2,2,0,0,0,2-2V2A2,2,0,0,0,22,0Zm0,2.5v3a.5.5,0,0,1-.5.5H2.5A.5.5,0,0,1,2,5.5v-3A.5.5,0,0,1,2.5,2h19A.5.5,0,0,1,22,2.5Zm-7,6v13a.5.5,0,0,1-.5.5h-5a.5.5,0,0,1-.5-.5V8.5A.5.5,0,0,1,9.5,8h5A.5.5,0,0,1,15,8.5ZM2.5,8h4a.5.5,0,0,1,.5.5v13a.5.5,0,0,1-.5.5h-4a.5.5,0,0,1-.5-.5V8.5A.5.5,0,0,1,2.5,8ZM17,21.5V8.5a.5.5,0,0,1,.5-.5h4a.5.5,0,0,1,.5.5v13a.5.5,0,0,1-.5.5h-4A.5.5,0,0,1,17,21.5Z" fill="currentColor" stroke="none" stroke-linecap="round" stroke-linejoin="round" stroke-width="0"></path></g></svg>
