<svg xmlns="http://www.w3.org/2000/svg" version="1.1" xmlns:xlink="http://www.w3.org/1999/xlink" xmlns:svgjs="http://svgjs.com/svgjs" viewBox="0 0 24 24" width="24" height="24"><g transform="matrix(1,0,0,1,0,0)"><path d="M22.5,1.5H1.5A1.5,1.5,0,0,0,0,3V16.5A1.5,1.5,0,0,0,1.5,18h8.75a.25.25,0,0,1,.25.25v2a.25.25,0,0,1-.25.25H7a1,1,0,0,0,0,2H17a1,1,0,0,0,0-2H13.75a.25.25,0,0,1-.25-.25v-2a.25.25,0,0,1,.25-.25H22.5A1.5,1.5,0,0,0,24,16.5V3A1.5,1.5,0,0,0,22.5,1.5ZM21,15.5H3a.5.5,0,0,1-.5-.5V4.5A.5.5,0,0,1,3,4H21a.5.5,0,0,1,.5.5V15A.5.5,0,0,1,21,15.5Z" fill="currentColor" stroke="none" stroke-linecap="round" stroke-linejoin="round" stroke-width="0"></path></g></svg>
