<svg xmlns="http://www.w3.org/2000/svg" version="1.1" xmlns:xlink="http://www.w3.org/1999/xlink" xmlns:svgjs="http://svgjs.com/svgjs" viewBox="0 0 24 24" width="24" height="24"><g transform="matrix(1,0,0,1,0,0)"><path d="M20.339,1.666A1,1,0,1,0,18.925,3.08a10.5,10.5,0,0,1,0,14.85,1,1,0,0,0,1.414,1.415,12.5,12.5,0,0,0,0-17.679Z" fill="currentColor" stroke="none" stroke-linecap="round" stroke-linejoin="round" stroke-width="0"></path><path d="M17.509,4.494A1,1,0,0,0,16.1,5.91a6.5,6.5,0,0,1,0,9.192,1,1,0,0,0,1.415,1.414,8.5,8.5,0,0,0,0-12.022Z" fill="currentColor" stroke="none" stroke-linecap="round" stroke-linejoin="round" stroke-width="0"></path><path d="M2,10.506A10.436,10.436,0,0,1,5.075,3.08,1,1,0,0,0,3.661,1.666a12.5,12.5,0,0,0,0,17.679A1,1,0,0,0,5.075,17.93,10.428,10.428,0,0,1,2,10.506Z" fill="currentColor" stroke="none" stroke-linecap="round" stroke-linejoin="round" stroke-width="0"></path><path d="M7.9,4.494a1,1,0,0,0-1.415,0,8.5,8.5,0,0,0,0,12.02A1,1,0,1,0,7.9,15.1a6.5,6.5,0,0,1,0-9.193A1,1,0,0,0,7.9,4.494Z" fill="currentColor" stroke="none" stroke-linecap="round" stroke-linejoin="round" stroke-width="0"></path><path d="M12,7.373a2.993,2.993,0,0,0-1,5.816v8.434a1,1,0,1,0,2,0V13.189a2.993,2.993,0,0,0-1-5.816Z" fill="currentColor" stroke="none" stroke-linecap="round" stroke-linejoin="round" stroke-width="0"></path></g></svg>
